# xmcd
#
# Track frame offsets:
#	150
#	39349
#	61397
#	78125
#	117406
#	141965
#	192986
#	217621
#	250929
#	272441
#	297804
#
# Disc length: 4549 seconds
#
# Revision: 2
# Processed by: cddbd v1.5.2PL0 Copyright (c) Steve Scherf et al.
# Submitted via: EZCDDA 4.3.2
#
DISCID=9611c30b
DTITLE=Sighisoara Blues Festival - 6
DYEAR=1900
DGENRE=
TTITLE0=Homemade Jamz - Rock Me Baby
TTITLE1=Homemade Jamz - Cause I'm a Man
TTITLE2=Sue Foley - You're Barkin'Up the Wrong Tree
TTITLE3=Sue Foley - A Long Way To Go
TTITLE4=Eric Sardinas - Hellhound On My Trail
TTITLE5=Eric Sardinas - I Wonder Who
TTITLE6=Eden Brent - Everybody is Somebody's Fool
TTITLE7=Eden Brent - What's Good for the Goose
TTITLE8=Doug MacLeod - She Boogy'n
TTITLE9=Doug MacLeod - Sunshine Down My Way
TTITLE10=Raul Kusak and Liviu Pop - Back at  the Chicken Shack
EXTD=Sighioara Blues Festival 2010\nprodus de Asociatia Clulturala Sighisoara 
EXTD=Blues Hospital
EXTT0=
EXTT1=
EXTT2=
EXTT3=
EXTT4=
EXTT5=
EXTT6=
EXTT7=
EXTT8=
EXTT9=
EXTT10=
PLAYORDER=
